# xmcd CD database file
#
# Track frame offsets:
#	150
#	24612
#	49797
#	81238
#	107638
#	142389
#	175840
#	196778
#	218287
#	249202
#
# Disc length: 3698 seconds
#
# Revision: 0
# Processed by: cddbd v1.5.1PL0 Copyright (c) Steve Scherf et al.
# Submitted via: CDex 1.51
#
DISCID=810e700a
DTITLE=Susanna Tamaro - Susanna Tamaro - Antworte mir CD2
DYEAR=2001
DGENRE=Lesung
TTITLE0=Antworte mir CD2
TTITLE1=Antworte mir CD2
TTITLE2=Antworte mir CD2
TTITLE3=Antworte mir CD2
TTITLE4=Antworte mir CD2
TTITLE5=Antworte mir CD2
TTITLE6=Antworte mir CD2
TTITLE7=Antworte mir CD2
TTITLE8=Antworte mir CD2
TTITLE9=Antworte mir CD2
EXTD=YEAR: 2001
EXTT0=
EXTT1=
EXTT2=
EXTT3=
EXTT4=
EXTT5=
EXTT6=
EXTT7=
EXTT8=
EXTT9=
PLAYORDER=
